:SAMPLES-PER-SECOND 30
:FULLY-SPECIFIED
:DEGREES
279
root  33.6085 34.2917 31.5769 -173.474 26.0947 175.37
LeftUpLeg  -15.9151 15.5533 -1.86107
LeftLeg  10.9011 11.9268 1.49833
LeftFoot  8.13994 -0.124482 1.74933
LeftToes  -22.3722 2.48695e-006 -1.03773e-007
Spine  3.31539 0.739738 -0.693146
Spine1  6.63165 1.61518 -1.36834
RightShoulder  0.00695013 5.04846 8.04569
RightArm  -49.7108 -23.2097 71.9047
RightForeArm  28.523 14.8394 2.67357
RightHand  0.3988 -6.76603 -6.36244
LeftShoulder1  0.00182583 1.88496 -8.84538
LeftArm  -22.5728 21.9586 -71.5161
LeftForeArm  39.4519 -11.3075 -2.00894
LeftHand  0.000901667 4.16245 -0.344557
HEad  -6.62187 25.0574 -4.0159
RightUpLeg  -7.74125 7.73135 -15.1961
RightLeg  8.28123 2.37175 0.192143
RightFoot  -0.257648 -0.000776528 0.0322726
RightToes  -36.556 -0.191572 -0.294852
280
root  33.2048 34.2645 31.2813 -173.631 26.0261 174.719
LeftUpLeg  -16.2184 16.1529 -3.35083
LeftLeg  11.6166 11.0725 1.53202
LeftFoot  6.78056 -0.0807579 1.36314
LeftToes  -21.1405 2.48695e-006 -1.03773e-007
Spine  3.28824 0.879939 -1.22618
Spine1  6.55701 1.92928 -2.40708
RightShoulder  0.00531057 5.11196 7.79615
RightArm  -48.9103 -22.9926 73.5435
RightForeArm  28.164 16.3513 2.96078
RightHand  0.389731 -6.73825 -6.23679
LeftShoulder1  0.00307704 2.03512 -9.3026
LeftArm  -23.0261 21.1663 -69.9867
LeftForeArm  38.6316 -11.5379 -2.05197
LeftHand  0.0465009 3.65112 1.08685
HEad  -7.28424 24.5797 -4.18037
RightUpLeg  -8.04164 8.96516 -16.527
RightLeg  9.1043 0.646973 0.062796
RightFoot  -0.547743 0.000854314 0.0441725
RightToes  -36.2345 -0.189123 -0.292879
281
root  32.835 34.2428 31.0071 -173.65 25.4314 174.442
LeftUpLeg  -16.2966 16.5221 -4.4746
LeftLeg  11.8104 10.0493 1.42636
LeftFoot  5.72632 -0.0527541 1.05476
LeftToes  -19.9695 2.48695e-006 -1.03773e-007
Spine  3.24955 0.86247 -1.58455
Spine1  6.45925 1.91224 -3.0836
RightShoulder  0.00487139 5.15024 7.46288
RightArm  -47.7354 -22.2747 74.8256
RightForeArm  28.1636 17.3538 3.15366
RightHand  0.371991 -6.49395 -6.17373
LeftShoulder1  0.00728202 1.89903 -9.69339
LeftArm  -23.8083 19.769 -68.7251
LeftForeArm  37.9119 -11.5463 -2.05427
LeftHand  0.0772594 3.60176 2.0829
HEad  -7.54967 24.0244 -4.08094
RightUpLeg  -8.49122 8.23644 -17.1607
RightLeg  10.8025 -0.862977 -0.106424
RightFoot  -1.01268 0.00172219 0.0777206
RightToes  -35.4381 -0.183105 -0.28793
282
root  32.5041 34.2309 30.756 -173.564 24.4963 174.499
LeftUpLeg  -16.4644 16.6449 -5.19856
LeftLeg  12.2668 8.96592 1.3464
LeftFoot  4.74998 -0.0333127 0.792496
LeftToes  -18.8979 2.48695e-006 -1.03773e-007
Spine  3.27157 0.738055 -1.80516
Spine1  6.48154 1.65915 -3.45947
RightShoulder  0.00545914 5.17657 7.1092
RightArm  -46.3903 -21.0063 75.8422
RightForeArm  28.3534 18.2307 3.32411
RightHand  0.357075 -6.45852 -5.94633
LeftShoulder1  0.0165815 1.54165 -9.97314
LeftArm  -24.5438 17.5711 -67.6988
LeftForeArm  37.6125 -11.218 -1.99456
LeftHand  0.103805 3.76407 2.78316
HEad  -7.39333 23.4373 -3.99252
RightUpLeg  -8.92171 5.70686 -17.0247
RightLeg  12.8527 -2.99057 -0.481181
RightFoot  -1.30218 0.000563247 0.14393
RightToes  -34.4233 -0.175536 -0.281503
283
root  32.2141 34.237 30.5316 -173.297 23.4261 174.831
LeftUpLeg  -16.7178 16.2499 -5.55206
LeftLeg  12.7923 8.28652 1.32251
LeftFoot  3.95951 -0.0216681 0.620986
LeftToes  -17.8704 2.48695e-006 -1.03773e-007
Spine  3.34833 0.595812 -1.92198
Spine1  6.60722 1.34056 -3.58903
RightShoulder  0.00691214 5.14744 6.79389
RightArm  -44.5724 -19.5138 76.6042
RightForeArm  27.9142 19.4388 3.56225
RightHand  0.340107 -6.41957 -5.68324
LeftShoulder1  0.0300724 1.20473 -10.0473
LeftArm  -25.0505 14.5618 -67.0165
LeftForeArm  37.9724 -10.7846 -1.9152
LeftHand  0.12216 3.96691 3.15084
HEad  -7.07228 22.7467 -4.05897
RightUpLeg  -9.29337 2.65148 -16.2893
RightLeg  14.5786 -6.26129 -1.20092
RightFoot  -1.1954 -0.00165378 0.219152
RightToes  -33.0418 -0.165418 -0.272541
